<?xml version="1.0" encoding="UTF-8"?>
<svg width="986px" height="222px" viewBox="0 0 986 222" version="1.1" xmlns="http://www.w3.org/2000/svg" xmlns:xlink="http://www.w3.org/1999/xlink">
    <title>logo@1x</title>
    <defs>
        <linearGradient x1="45.1709142%" y1="13.2128274%" x2="59.6599601%" y2="90.6812284%" id="linearGradient-1">
            <stop stop-color="#95C0E4" offset="0%"></stop>
            <stop stop-color="#5495D3" offset="48.7338049%"></stop>
            <stop stop-color="#053FA0" offset="100%"></stop>
        </linearGradient>
        <linearGradient x1="17.3857122%" y1="40.6886475%" x2="68.8967591%" y2="67.7894026%" id="linearGradient-2">
            <stop stop-color="#BCD8E1" offset="0%"></stop>
            <stop stop-color="#5495D3" offset="50.4952694%"></stop>
            <stop stop-color="#053FA0" offset="100%"></stop>
        </linearGradient>
        <linearGradient x1="100%" y1="64.5562188%" x2="7.79123254%" y2="50%" id="linearGradient-3">
            <stop stop-color="#002FB1" offset="0%"></stop>
            <stop stop-color="#82B5DA" offset="100%"></stop>
        </linearGradient>
        <path d="M145.199747,80.7011863 C155.202129,86.7099954 171.790253,96.7808749 182.208561,103.734954 C191.210705,109.743763 197.729475,116.059293 207.214517,122.76285 C212.014277,126.155082 216.604559,129.338955 218.217138,133.779 C222.21809,144.79515 213.215946,161.820109 191.210705,154.809831 C185.311629,152.930544 183.2088,150.803959 177.20737,149.80249 C173.206417,149.134845 165.204512,148.801022 153.201653,148.801022 C123.861332,150.136313 107.85752,139.120163 105.190218,115.752572 C101.189265,80.7011863 139.82995,77.4753466 145.199747,80.7011863 Z" id="path-4"></path>
        <linearGradient x1="18.8944871%" y1="83.452702%" x2="54.5499594%" y2="8.02133946%" id="linearGradient-6">
            <stop stop-color="#FFFFFF" offset="0%"></stop>
            <stop stop-color="#74ABD9" offset="38.2671264%"></stop>
            <stop stop-color="#4C8FD0" offset="69.8517409%"></stop>
            <stop stop-color="#002FB1" offset="100%"></stop>
        </linearGradient>
    </defs>
    <g id="页面-1" stroke="none" stroke-width="1" fill="none" fill-rule="evenodd">
        <g id="logo" transform="translate(-0.000000, 0.000000)">
            <path d="M5.44875313,0.652894749 L5.54674674,0.788921036 L5.74037823,1.07200787 L5.74037823,1.07200787 L6.12151897,1.64861857 C6.21044283,1.78024597 6.29152741,1.89439953 6.36122594,1.97792428 C8.25129837,4.24293379 12.3118057,6.59400682 18.5427479,9.03114337 L19.6995632,9.47520746 L19.6995632,9.47520746 L20.9042117,9.92116827 L20.9042117,9.92116827 L22.1566934,10.3690258 C22.3694265,10.4438268 22.5841526,10.5187068 22.8008718,10.5936658 L24.1251035,11.0443684 C24.3497949,11.1196436 24.5764793,11.1949978 24.8051568,11.270431 L26.2011384,11.7239787 C26.6744378,11.8754774 27.1557095,12.0272922 27.6449533,12.1794231 L29.1366015,12.6367642 C29.6417897,12.7895273 30.1549502,12.9426066 30.6760829,13.096002 L32.2633976,13.5571365 L32.2633976,13.5571365 L33.8985456,14.0201678 L33.8985456,14.0201678 L35.5815268,14.4850958 C35.8660098,14.5627418 36.1524859,14.6404669 36.440955,14.718271 L38.1956861,15.1860441 L38.1956861,15.1860441 L39.9982506,15.6557139 C40.6070776,15.8125866 41.2238769,15.9697754 41.8486483,16.1272803 L43.7468793,16.6007435 C44.0672373,16.6798121 44.3895882,16.7589598 44.7139323,16.8381864 L46.6839132,17.3144947 L46.6839132,17.3144947 L48.7017274,17.7926997 L48.7017274,17.7926997 L50.7673749,18.2728014 L50.7673749,18.2728014 L52.8808556,18.7547998 L52.8808556,18.7547998 L55.0421696,19.238695 L55.0421696,19.238695 L57.2513169,19.7244868 L57.2513169,19.7244868 L59.5082975,20.2121754 L59.5082975,20.2121754 L61.8131114,20.7017607 L61.8131114,20.7017607 L64.1657585,21.1932427 L64.1657585,21.1932427 L67.7844166,21.9340221 L67.7844166,21.9340221 L70.2566469,22.4302459 L70.2566469,22.4302459 L72.7767105,22.9283664 L72.7767105,22.9283664 L75.3446073,23.4283836 L75.3446073,23.4283836 L77.9603375,23.9302976 L77.9603375,23.9302976 L80.6239009,24.4341082 L80.6239009,24.4341082 L84.0023332,25.0611723 L84.0023332,25.0611723 L89.2876948,25.9976524 L89.2876948,25.9976524 L91.4205692,26.3877316 L91.4205692,26.3877316 L93.7229575,26.8229294 L93.7229575,26.8229294 L96.1604587,27.3025093 L96.1604587,27.3025093 L98.1846236,27.7176336 L98.1846236,27.7176336 L99.2153727,27.9355528 L99.2153727,27.9355528 L101.303196,28.3918701 L101.303196,28.3918701 L102.883429,28.7518414 L102.883429,28.7518414 L104.467719,29.1268359 L104.467719,29.1268359 L106.048635,29.5166946 L106.048635,29.5166946 L107.097036,29.7847797 L107.097036,29.7847797 L108.138433,30.0593533 L108.138433,30.0593533 L109.170624,30.3403683 L109.170624,30.3403683 L110.191409,30.6277775 L110.191409,30.6277775 C110.564207,30.7345767 110.934308,30.8426382 111.301587,30.9518112 L112.394825,31.2825135 L112.394825,31.2825135 L113.470359,31.6189795 L113.470359,31.6189795 L114.527423,31.9603039 L114.527423,31.9603039 L115.565252,32.3055816 L115.565252,32.3055816 L116.583082,32.6539074 L116.583082,32.6539074 L117.580148,33.0043761 L117.580148,33.0043761 L118.555684,33.3560826 L118.555684,33.3560826 L119.976948,33.8839831 L119.976948,33.8839831 L120.895314,34.2348239 L120.895314,34.2348239 L121.789474,34.5837344 L121.789474,34.5837344 L122.658662,34.9298094 L122.658662,34.9298094 L123.913948,35.4416254 L123.913948,35.4416254 L125.108746,35.94197 L125.108746,35.94197 L126.240473,36.4277883 L126.240473,36.4277883 L127.646871,37.0476694 L127.646871,37.0476694 L128.621393,37.4877127 L128.621393,37.4877127 L130.08504,38.1646997 L130.08504,38.1646997 L131.982913,39.0698119 L131.982913,39.0698119 L132.367223,39.2561889 C149.612723,47.6347348 162.930839,56.5693504 172.321571,66.0600358 C203.094083,95.9001906 217.72644,146.849167 216.216661,218.903795 L216.219165,219.04666 C216.217886,219.076501 216.21452,219.109157 216.207209,219.144326 L216.193052,219.198926 L216.175082,219.248726 L216.175082,219.248726 L216.136048,219.328026 L216.136048,219.328026 L216.079861,219.412416 L216.079861,219.412416 L216.031396,219.471264 L216.031396,219.471264 L215.973092,219.532015 L215.973092,219.532015 L215.904062,219.594525 L215.904062,219.594525 L215.778466,219.691275 L215.778466,219.691275 L215.623751,219.791174 L215.623751,219.791174 L215.502952,219.859285 L215.502952,219.859285 L215.293056,219.963358 L215.293056,219.963358 L215.046062,220.069288 L215.046062,220.069288 L214.859313,220.1407 L214.859313,220.1407 L214.653859,220.212579 L214.653859,220.212579 L214.428815,220.284781 L214.428815,220.284781 L214.183294,220.357161 L214.183294,220.357161 L213.91641,220.429577 L213.91641,220.429577 L213.474089,220.537953 L213.474089,220.537953 L212.978715,220.6456 L212.978715,220.6456 L212.427295,220.752034 L212.427295,220.752034 L212.027068,220.822076 L212.027068,220.822076 L211.375592,220.92541 L211.375592,220.92541 L210.660092,221.026238 L210.660092,221.026238 L209.877578,221.124075 L209.877578,221.124075 L209.025057,221.218435 L209.025057,221.218435 L208.41634,221.279172 L208.41634,221.279172 L207.774293,221.338004 L207.774293,221.338004 L206.74679,221.422369 L206.74679,221.422369 L205.639307,221.501641 L205.639307,221.501641 L204.448854,221.575336 L204.448854,221.575336 L203.607647,221.621128 L203.607647,221.621128 L202.727347,221.664083 L202.727347,221.664083 L201.807069,221.704056 L201.807069,221.704056 L200.349754,221.758111 L200.349754,221.758111 L199.325652,221.790001 L199.325652,221.790001 L197.708446,221.83126 L197.708446,221.83126 L195.991316,221.864193 L195.991316,221.864193 L194.171271,221.888318 L194.171271,221.888318 L192.245318,221.903148 L192.245318,221.903148 L186.616918,221.903148 L186.616918,221.903148 L182.039447,221.867255 L182.039447,221.867255 L177.276299,221.803356 L177.276299,221.803356 L174.626258,221.755096 L174.626258,221.755096 L170.665636,221.665488 L170.665636,221.665488 L167.076224,221.565346 L167.076224,221.565346 L163.974683,221.463419 L163.974683,221.463419 L160.794505,221.343062 L160.794505,221.343062 L158.207413,221.232477 L158.207413,221.232477 L156.90313,221.172149 L156.90313,221.172149 L154.959756,221.076256 L154.959756,221.076256 L152.450444,220.941185 L152.450444,220.941185 L149.168031,220.747116 L149.168031,220.747116 L146.503007,220.578443 L146.503007,220.578443 L143.896905,220.403564 L143.896905,220.403564 L140.513712,220.161211 L140.513712,220.161211 L138.861358,220.036283 L138.861358,220.036283 L136.431859,219.844431 L136.431859,219.844431 L134.061172,219.647471 L134.061172,219.647471 L130.991697,219.377386 L130.991697,219.377386 L128.026665,219.09936 L128.026665,219.09936 L125.871393,218.88602 L125.871393,218.88602 L123.088983,218.595662 L123.088983,218.595662 L121.736881,218.448135 L121.736881,218.448135 L119.757586,218.22414 L119.757586,218.22414 L117.836896,217.997142 L117.836896,217.997142 L115.974783,217.767417 L115.974783,217.767417 L114.171219,217.535238 L114.171219,217.535238 L113.001358,217.379226 L113.001358,217.379226 L111.295318,217.143569 L111.295318,217.143569 L109.647756,216.906192 L109.647756,216.906192 L108.058643,216.667368 L108.058643,216.667368 L106.527954,216.427373 L106.527954,216.427373 L104.577869,216.106033 L104.577869,216.106033 L103.183395,215.864373 L103.183395,215.864373 L102.286154,215.703108 L102.286154,215.703108 L100.988885,215.461174 L100.988885,215.461174 L99.7499038,215.219442 L99.7499038,215.219442 L98.5691823,214.978187 L98.5691823,214.978187 L98.1885504,214.897922 C96.2322366,214.482086 94.3185923,214.040255 92.4500741,213.576175 L90.8595958,213.173031 C89.8067208,212.900752 88.7688102,212.621557 87.7463222,212.336146 L86.2242145,211.903454 C85.9724768,211.830591 85.7217174,211.757361 85.4719434,211.683775 L83.9851814,211.238079 C83.4935738,211.088148 83.0059653,210.936882 82.5224129,210.784368 L81.0839817,210.323166 L81.0839817,210.323166 L79.6702317,209.854998 C78.502486,209.462101 77.3608079,209.062494 76.2460928,208.657541 L74.9214342,208.169119 C74.7028339,208.087317 74.4853264,208.005323 74.268919,207.923148 L72.9837316,207.428011 L72.9837316,207.428011 L71.7252882,206.929054 C71.1028097,206.678707 70.4904892,206.427124 69.8885199,206.174599 L68.6984404,205.668382 C67.7183045,205.245634 66.7672802,204.820816 65.8462629,204.395294 L64.7555029,203.884417 L64.7555029,203.884417 L63.6938933,203.373388 L63.6938933,203.373388 L62.6617782,202.862731 C62.4922359,202.777682 62.3239369,202.69267 62.1568884,202.607706 L61.1696593,202.098591 L61.1696593,202.098591 L60.2127841,201.591158 C60.0558534,201.506755 59.9002019,201.422444 59.7458366,201.338236 L58.8351367,200.83431 C58.3875614,200.583051 57.9516912,200.332915 57.5277193,200.084196 L56.6956974,199.588736 C55.8796546,199.095339 55.1117211,198.608398 54.3934439,198.130272 C53.1369304,197.448715 52.0600515,196.690682 51.1773537,195.870027 C50.9175722,195.628504 50.6546926,195.380433 50.3889064,195.125929 C49.61742,194.455734 48.9771689,193.820344 48.4728423,193.228313 L48.0487587,192.7928 L48.0487587,192.7928 L47.1898814,191.893769 C45.3141541,189.905807 43.3448437,187.659113 41.3363442,185.186368 L40.4067599,184.029168 L40.4067599,184.029168 L39.4727986,182.840581 C27.1520428,166.987343 14.0021376,143.157569 12.2298703,118.685136 L12.161609,117.63299 L12.161609,117.63299 L12.1559988,117.411908 C12.1558807,117.37769 12.1561731,117.344774 12.1568791,117.313145 L12.166102,117.138672 C12.2064331,116.687307 12.3680465,116.598007 12.6659338,116.788521 L12.7767533,116.867246 L12.7767533,116.867246 L12.8990361,116.968404 L12.8990361,116.968404 L13.1042745,117.160447 L13.1042745,117.160447 L13.3361293,117.398445 L13.3361293,117.398445 L13.5950948,117.679685 L13.5950948,117.679685 L15.3138843,119.639609 L15.3138843,119.639609 L15.8966675,120.290125 L15.8966675,120.290125 L16.5340922,120.982159 L16.5340922,120.982159 L17.048724,121.524564 L17.048724,121.524564 L17.4094975,121.895793 L17.4094975,121.895793 L17.9775526,122.465067 L17.9775526,122.465067 L18.3743994,122.851697 L18.3743994,122.851697 L18.7859319,123.243082 L18.7859319,123.243082 L19.2122964,123.638418 L19.2122964,123.638418 L19.6536395,124.036901 C19.728453,124.103532 19.8038968,124.170261 19.8799738,124.237071 L20.5818472,124.840093 L20.5818472,124.840093 L21.0690047,125.243196 L21.0690047,125.243196 L21.5717267,125.646231 C21.6568189,125.713353 21.7425657,125.780439 21.8289701,125.847472 L22.3553134,126.2489 L22.3553134,126.2489 L22.8975872,126.648251 L22.8975872,126.648251 L23.4559382,127.044723 L23.4559382,127.044723 L24.0305126,127.437511 C24.1276351,127.502624 24.2254397,127.56755 24.3239294,127.632272 L24.9231138,128.018028 L24.9231138,128.018028 L25.5388878,128.398091 L25.5388878,128.398091 L26.1713981,128.771659 L26.1713981,128.771659 C32.6223298,132.496226 34.5528226,130.186236 34.16928,126.226738 L34.1241696,125.832114 C34.1154334,125.765508 34.1060947,125.698497 34.0961633,125.631102 L34.0295399,125.222258 C34.0050131,125.084538 33.9781931,124.945432 33.9491578,124.805093 L33.8554835,124.380535 L33.8554835,124.380535 L33.7489835,123.94951 C33.7301907,123.877186 33.7108829,123.80463 33.6910698,123.731863 L33.5662064,123.292878 L33.5662064,123.292878 L33.4296838,122.849745 C33.4059844,122.775595 33.3818186,122.701311 33.3571962,122.626913 L33.2040598,122.179296 L33.2040598,122.179296 L33.0404309,121.72985 L33.0404309,121.72985 L32.8667758,121.279502 L32.8667758,121.279502 L32.6835614,120.829179 L32.6835614,120.829179 L32.4912541,120.379808 L32.4912541,120.379808 L32.2903205,119.932316 L32.2903205,119.932316 L32.0812272,119.487632 L32.0812272,119.487632 L31.8644408,119.046681 L31.8644408,119.046681 L31.640428,118.610393 L31.640428,118.610393 L31.4096553,118.179693 L31.4096553,118.179693 L31.1725892,117.755509 L31.1725892,117.755509 C30.7781291,117.064355 30.3229653,116.356986 29.8141493,115.62867 L29.3650463,114.99916 L29.3650463,114.99916 L28.8906515,114.358728 C28.8095328,114.251043 28.7274014,114.142875 28.6442779,114.03421 L28.1337953,113.376155 L28.1337953,113.376155 L27.6004878,112.705523 L27.6004878,112.705523 L27.045342,112.021652 L27.045342,112.021652 L26.4693447,111.323881 L26.4693447,111.323881 L25.5684108,110.249711 L25.5684108,110.249711 L21.5843261,105.580676 L21.5843261,105.580676 L20.5098693,104.309156 L20.5098693,104.309156 L19.410699,102.991462 L19.410699,102.991462 L18.6658336,102.086243 L18.6658336,102.086243 L17.9124513,101.158848 C17.7862327,101.002397 17.6597003,100.844995 17.5328747,100.686627 L16.7685673,99.7247247 L16.7685673,99.7247247 L15.9982099,98.7389905 L15.9982099,98.7389905 L15.2227893,97.7287621 C15.0931854,97.5583127 14.9634117,97.3868152 14.8334887,97.2142557 L14.0523234,96.1660445 C11.9653159,93.3362432 9.85061459,90.2275147 7.79242359,86.7833611 C6.06940849,83.900087 4.591529,79.6677875 3.40053099,75.0356705 L3.13079687,73.9600551 C3.08669627,73.779747 3.04302481,73.5989555 2.99978486,73.4177345 L2.74554221,72.3256876 L2.74554221,72.3256876 L2.50176973,71.2259267 C2.46201983,71.0421344 2.42271093,70.8581287 2.38384542,70.6739636 L2.15599194,69.5674923 L2.15599194,69.5674923 L1.93889364,68.4597876 L1.93889364,68.4597876 L1.73266453,67.353442 L1.73266453,67.353442 L1.53741861,66.2510476 C1.50579923,66.0677885 1.47464223,65.8848021 1.44394998,65.7021423 L1.26539262,64.6105354 L1.26539262,64.6105354 L1.09810348,63.5293605 C1.07116731,63.350178 1.0447054,63.1715382 1.01872012,62.9934951 L0.868547067,61.9328287 L0.868547067,61.9328287 L0.729927248,60.8890751 L0.729927248,60.8890751 L0.602974672,59.8648264 L0.602974672,59.8648264 L0.487803346,58.862675 L0.487803346,58.862675 L0.38452728,57.8852131 L0.38452728,57.8852131 L0.293260479,56.9350331 L0.293260479,56.9350331 L0.214116952,56.0147272 L0.214116952,56.0147272 L0.147210708,55.1268877 L0.147210708,55.1268877 L0.0926557529,54.274107 L0.0926557529,54.274107 L0.0505660956,53.4589771 L0.0505660956,53.4589771 L0.0210557436,52.6840906 L0.0210557436,52.6840906 L0.00423870488,51.9520396 C-0.00445494474,51.3605653 -5.68434189e-14,50.8164117 0.0184775295,50.3263294 L0.0469848985,49.764617 C0.169805295,47.892488 0.535292343,47.0218116 1.16544243,47.6527365 L1.68473444,48.1666345 L1.68473444,48.1666345 L2.14858249,48.6170707 L2.14858249,48.6170707 L2.86354051,49.2984281 L2.86354051,49.2984281 L3.68571664,50.0653487 L3.68571664,50.0653487 L4.37070204,50.692259 L4.37070204,50.692259 L5.11271087,51.3600479 L5.11271087,51.3600479 L5.91033452,52.0656081 L5.91033452,52.0656081 L6.47228512,52.555431 L6.47228512,52.555431 L7.35946987,53.3170377 L7.35946987,53.3170377 L8.29851313,54.1081292 L8.29851313,54.1081292 L8.95265664,54.6503694 L8.95265664,54.6503694 L9.62880496,55.2034121 L9.62880496,55.2034121 L10.3265407,55.7663367 L10.3265407,55.7663367 L11.0454466,56.3382223 L11.0454466,56.3382223 L11.7851051,56.9181483 L11.7851051,56.9181483 L12.545099,57.505194 C12.6734361,57.6035771 12.8026031,57.7022185 12.9325913,57.8010989 L13.7223057,58.3970977 L13.7223057,58.3970977 L14.5313119,58.9979144 L14.5313119,58.9979144 L15.3591928,59.6026281 L15.3591928,59.6026281 L16.2055308,60.2103183 L16.2055308,60.2103183 L17.0699087,60.8200642 L17.0699087,60.8200642 L17.951909,61.4309451 L17.951909,61.4309451 L18.8511144,62.0420402 L18.8511144,62.0420402 L19.7671075,62.6524289 C20.0751902,62.8556717 20.3860012,63.0586433 20.699471,63.2611903 L21.6477875,63.8674039 C21.9665055,64.0689482 22.2878127,64.2699143 22.6116396,64.4701489 L23.59061,65.0685045 C24.5770004,65.6643586 25.5854421,66.2522476 26.614057,66.8280282 L27.6493268,67.3996193 C27.8229693,67.4941606 27.9971548,67.5883273 28.1718745,67.6821 C34.0132842,70.8172066 40.3481263,73.1539657 47.1764008,74.6923773 C47.781909,64.992333 41.7894658,56.1180469 29.1990712,48.0695188 L28.2301524,47.4598259 C27.5757489,47.0544225 26.9044304,46.651136 26.2161967,46.2499666 L25.1711599,45.6498002 C16.2891184,40.6233427 10.9853849,30.6706616 7.93599643,21.0941207 L7.62852982,20.1050032 C7.42884081,19.4467759 7.23965687,18.7912073 7.06054372,18.1400366 L6.79937279,17.1667964 L6.79937279,17.1667964 L6.55298235,16.2014574 L6.55298235,16.2014574 L6.32104666,15.2453243 C6.28357718,15.0868084 6.24669641,14.9287304 6.21039756,14.7711175 L5.9995333,13.8312388 L5.9995333,13.8312388 L5.80230953,12.903827 C5.77055751,12.7503698 5.73936027,12.5974863 5.70871104,12.4452039 L5.53133727,11.5389382 L5.53133727,11.5389382 L5.36678971,10.6484006 L5.36678971,10.6484006 L5.21474264,9.77489543 L5.21474264,9.77489543 L5.07487035,8.91972715 L5.07487035,8.91972715 L4.94684713,8.08420021 L4.94684713,8.08420021 L4.83034727,7.26961907 L4.83034727,7.26961907 L4.72504505,6.47728816 L4.72504505,6.47728816 L4.63061477,5.70851195 L4.63061477,5.70851195 L4.54673071,4.96459487 L4.54673071,4.96459487 L4.43996629,3.89818361 L4.43996629,3.89818361 L4.35509874,2.89504294 L4.35509874,2.89504294 L4.32385252,2.43749854 L4.32385252,2.43749854 L4.30347859,2.02602075 L4.30347859,2.02602075 L4.29347294,1.65874019 L4.29347294,1.65874019 L4.29333155,1.33378745 C4.29410201,1.28305213 4.29526247,1.23400257 4.29680245,1.18659983 L4.31051243,0.921633709 C4.31654447,0.839691246 4.32401054,0.764024505 4.33282664,0.69432192 L4.36324107,0.502795066 C4.46613065,-0.0199774889 4.67156891,-0.0848902705 4.91831809,0.0809250201 L5.00201384,0.144430702 L5.00201384,0.144430702 L5.08826565,0.223157955 L5.08826565,0.223157955 L5.22133343,0.365699976 L5.22133343,0.365699976 L5.35731725,0.531975176 L5.35731725,0.531975176 L5.44875313,0.652894749 Z" id="路径" fill="url(#linearGradient-1)"></path>
            <path d="M354.249536,83.7055909 C346.24763,88.7129317 341.506897,91.2468345 326.242866,93.7202726 C319.700267,94.7804586 305.696932,94.7804586 284.23286,93.7202726 C283.566035,89.0467545 296.569132,83.0379454 323.242151,75.6938455 C363.25168,64.6776955 376.254777,13.6028186 369.25311,23.6175003 C365.899205,28.4146841 347.077634,33.8253781 312.715596,39.5601499 C246.223808,50.6571411 230.899467,58.3422334 217.216899,63.6762273 C146.143941,91.3832148 119.335601,125.161022 132.19665,168.830386 C155.202129,246.944903 249.224523,218.903795 273.23024,202.880304 C297.235957,186.856813 322.481991,161.860084 329.243581,134.780468 C330.243819,130.774595 323.242151,137.784872 309.238816,144.79515 C295.235481,151.805427 283.092803,152.457518 268.229049,150.803959 C250.224761,148.801022 288.00057,140.787145 301.23691,134.780468 C314.764652,128.641552 327.260739,125.466761 339.245963,112.748168 C346.090882,105.484412 362.251442,78.69825 354.249536,83.7055909 Z" id="右翅膀" fill="url(#linearGradient-2)"></path>
            <mask id="mask-5" fill="white">
                <use xlink:href="#path-4"></use>
            </mask>
            <use id="形状结合" fill="url(#linearGradient-3)" xlink:href="#path-4"></use>
            <path d="M141.198794,71.6879727 C147.867049,70.3526818 155.535542,70.3526818 164.204273,71.6879727 C157.773161,74.541919 151.711709,77.7107433 146.019917,81.1944456 C156.088299,87.2484547 172.069933,96.9675571 182.208561,103.734954 C191.210705,109.743763 197.729475,116.059293 207.214517,122.76285 C210.498319,125.083678 213.68407,127.306979 215.885279,129.90175 C217.502221,142.091835 214.250791,158.553601 196.211897,152.806895 C193.728075,152.015616 191.207962,150.292767 188.674478,148.488354 L187.72384,147.809536 C184.553255,145.545132 181.366256,143.319302 178.207608,142.792213 C174.206656,142.124568 168.872052,142.124568 162.203797,142.792213 C134.863952,145.462795 119.860379,135.114291 117.193077,111.7467 C116.927748,109.422216 116.849951,107.237697 116.937547,105.185742 C95.1564584,129.664901 91.3726194,158.76854 107.190694,184.853877 C124.194744,212.894986 148.200462,219.905263 169.205464,221.908199 C172.566612,222.228702 158.794265,221.655929 145.460405,221.024916 L144.106616,220.960577 C135.325706,220.541491 126.996662,220.109326 124.194744,219.905263 C99.8872974,218.134953 73.1825947,212.894986 51.1773537,196.871495 C49.8437028,148.133377 69.1816418,110.411409 109.191171,83.7055909 C117.906585,77.8881704 129.708361,73.9888852 141.198794,71.6879727 Z" id="形状结合" fill="url(#linearGradient-6)"></path>
            <path d="M164,111 C165,112 173,115 173,113 C173,111 171.205941,107.740827 168.205226,106.739359 C165.204512,105.737891 164,106 163,107 C162,108 163,110 164,111 Z" id="椭圆形" fill="#FFFFFF"></path>
            <path d="M409.172617,186.856813 L409.172617,145.39603 C411.795242,145.948841 414.831965,146.087044 418.144754,146.087044 C437.193291,146.087044 457.622157,137.242077 457.622157,111.536391 C457.622157,101.862209 454.033302,93.8464576 448.097888,88.7329611 C441.748376,83.0666542 431.948042,80.302602 418.972951,80.302602 C408.068354,80.302602 399.648349,81.2700203 393.298837,82.3756411 L393.298837,186.856813 L409.172617,186.856813 Z M418.144754,133.372404 C414.417867,133.372404 411.519176,133.234201 409.172617,132.543188 L409.172617,93.8464576 C411.24311,93.4318498 414.969998,92.8790393 419.939182,92.8790393 C432.776239,92.8790393 441.610343,99.3745619 441.610343,112.227405 C441.610343,125.77126 432.776239,133.372404 418.144754,133.372404 Z M533.608254,186.856813 L533.608254,173.45116 L492.060359,173.45116 L492.060359,138.347697 L529.053169,138.347697 L529.053169,125.080247 L492.060359,125.080247 L492.060359,94.5374706 L531.261695,94.5374706 L531.261695,81.1318176 L476.048545,81.1318176 L476.048545,186.856813 L533.608254,186.856813 Z M599.347674,187.962434 C612.900818,187.962434 625.411412,184.921976 631.815644,182.572532 L631.815644,129.917338 L595.475348,129.917338 L595.475348,142.770181 L615.134852,142.770181 L615.134852,172.621944 C612.602946,173.865768 607.390199,174.833186 599.943417,174.833186 C577.603071,174.833186 561.964828,160.73652 561.964828,134.063417 C561.964828,107.252111 578.794556,93.5700524 602.177451,93.5700524 C612.602946,93.5700524 619.453986,95.3666863 624.815669,97.577928 L628.687996,84.4486802 C623.028441,81.8228307 613.347625,80.0261968 602.177451,80.0261968 C568.07119,80.0261968 543.79468,100.480183 543.79468,134.75443 C543.79468,151.615148 550.049977,187.962434 599.347674,187.962434 Z M663.837271,186.856813 L672.94744,155.761226 L705.247133,155.761226 L714.771402,186.856813 L731.611412,186.856813 L699.31172,81.1318176 L679.711051,81.1318176 L647.411359,186.856813 L663.837271,186.856813 Z M702.624509,143.461194 L675.432032,143.461194 L683.852038,115.68247 C685.646465,109.186947 687.302859,101.447601 688.821221,94.9520785 L689.097287,94.9520785 C690.615648,101.447601 692.410076,108.910542 694.342536,115.820672 L702.624509,143.461194 Z M770.672716,188.377042 C794.41437,188.377042 807.527493,175.109591 807.527493,157.419657 C807.527493,142.908384 799.383554,133.648809 782.40551,126.185868 C769.016321,120.381358 763.080907,115.958875 763.080907,106.975705 C763.080907,100.203778 768.326157,92.8790393 780.887148,92.8790393 C789.58322,92.8790393 796.208798,95.6430915 799.659619,97.577928 L803.52454,84.3104776 C798.969455,81.9610333 791.377647,79.4733863 781.301247,79.4733863 C760.32025,79.4733863 746.931061,92.0498237 746.931061,108.772339 C746.931061,123.145411 757.559592,132.681391 773.29534,139.038711 C785.856332,144.29041 791.239614,149.818514 791.239614,158.801683 C791.239614,168.337663 784.199937,174.833186 771.638946,174.833186 C762.942875,174.833186 754.384836,172.069134 748.725488,168.614069 L745.136634,182.019722 C750.24385,185.474787 760.734349,188.377042 770.672716,188.377042 Z M864.809136,188.377042 C887.308495,188.377042 902.90621,175.109591 902.90621,143.737599 L902.90621,81.1318176 L886.894396,81.1318176 L886.894396,145.119625 C886.894396,166.126422 878.612424,175.247794 865.361268,175.247794 C853.214375,175.247794 844.518303,166.264624 844.518303,145.119625 L844.518303,81.1318176 L828.50649,81.1318176 L828.50649,144.152207 C828.50649,175.662402 843.137975,188.377042 864.809136,188.377042 Z M949.145222,188.377042 C972.886877,188.377042 986,175.109591 986,157.419657 C986,142.908384 977.85606,133.648809 960.878017,126.185868 C947.488828,120.381358 941.553414,115.958875 941.553414,106.975705 C941.553414,100.203778 946.798663,92.8790393 959.359655,92.8790393 C968.055726,92.8790393 974.681304,95.6430915 978.132126,97.577928 L981.997047,84.3104776 C977.441962,81.9610333 969.850154,79.4733863 959.773754,79.4733863 C938.792757,79.4733863 925.403568,92.0498237 925.403568,108.772339 C925.403568,123.145411 936.032099,132.681391 951.767847,139.038711 C964.328839,144.29041 969.712121,149.818514 969.712121,158.801683 C969.712121,168.337663 962.672444,174.833186 950.111452,174.833186 C941.415381,174.833186 932.857343,172.069134 927.197995,168.614069 L923.60914,182.019722 C928.716357,185.474787 939.206855,188.377042 949.145222,188.377042 Z" id="PEGASUS" fill="#333533" fill-rule="nonzero"></path>
        </g>
    </g>
</svg>